<svg width="21" height="19" viewBox="0 0 21 19" fill="none" xmlns="http://www.w3.org/2000/svg">
<path opacity="0.25" d="M4.48998 18.9992C3.48697 19.0101 2.42687 18.8762 1.70241 18.3358C1.15809 17.9293 0.88248 17.3508 0.673806 16.7824C0.133419 15.3115 0.0153011 13.7728 0.002505 12.249C-0.0102911 10.7251 0.0212069 9.22308 0.208226 7.70936C0.384418 6.28284 0.644276 4.85477 1.17876 3.48198C1.67387 2.21042 2.50856 0.906158 4.01948 0.322937C4.99592 -0.0531578 6.14757 -0.0757391 7.20275 0.126714C8.25793 0.329167 9.22945 0.742638 10.1409 1.20906C11.0051 1.65134 11.8339 2.14891 12.5092 2.76327C13.1834 3.37764 13.7002 4.11815 13.8724 4.92018C14.1294 6.12399 13.6008 7.32236 12.9639 8.39847C12.7848 8.70215 12.6184 8.85711 13.1441 8.84621C13.5388 8.83764 13.9335 8.82752 14.3282 8.8283C15.1147 8.82985 15.9031 8.86645 16.6758 8.99026C17.9642 9.19661 19.2291 9.67237 20.0431 10.49C21.055 11.5069 21.2292 12.9474 20.7311 14.1801C20.2331 15.4127 19.1316 16.4499 17.8432 17.248C16.7683 17.9138 15.5428 18.4347 14.2278 18.7244C13.4226 18.9011 12.5741 18.9907 11.7483 18.8918C10.9225 18.7921 10.1173 18.4915 9.57888 17.9862C10.9736 17.5065 12.3418 16.9506 13.523 16.1921C14.7032 15.4329 15.6944 14.4565 16.1816 13.3165C16.4179 12.7645 16.5202 12.1221 16.1344 11.6253C15.781 11.1697 15.095 10.9424 14.4286 10.8528C12.8675 10.6441 11.1922 11.0779 10.0888 11.9764C9.98442 12.0613 9.85252 12.1579 9.70782 12.1283C9.57888 12.1018 9.51687 11.9897 9.47257 11.8908C8.95482 10.7516 8.30912 9.59606 7.14664 8.80805C6.37494 8.28479 5.22428 7.95775 4.34726 8.36421C3.85609 8.59236 3.54898 9.00895 3.36787 9.43644C2.95839 10.4043 3.10407 11.4812 3.56965 12.4327C4.03523 13.3843 4.80201 14.226 5.63671 15.0039C6.81296 16.0995 8.14178 17.0923 9.59069 17.9589C8.07583 18.5928 6.3779 18.9502 4.66519 18.9969C4.60712 18.9984 4.54904 18.9992 4.49097 19L4.48998 18.9992Z" fill="#6BC6AE"/>
</svg>
