<svg width="19" height="19" viewBox="0 0 19 19" fill="none" xmlns="http://www.w3.org/2000/svg">
<path d="M12.1867 4.33255C12.2161 4.31866 12.2463 4.30659 12.2771 4.29643C12.0613 3.48324 12.1527 2.61897 12.5339 1.86901C12.9152 1.11905 13.5594 0.536074 14.3433 0.231642C15.1273 -0.0727898 15.9959 -0.0772964 16.783 0.218984C17.57 0.515265 18.2203 1.09153 18.6092 1.83749C18.9982 2.58345 19.0986 3.44673 18.8912 4.26212C18.6838 5.07751 18.1832 5.78775 17.4851 6.25691C16.7871 6.72608 15.9406 6.92123 15.1077 6.80502C14.2749 6.68881 13.5141 6.26939 12.971 5.62704C12.9455 5.64639 12.9189 5.66405 12.8912 5.67988L8.49722 7.97879C8.33924 7.49381 8.1067 7.03643 7.80795 6.62309L12.1867 4.33255ZM7.59935 9.49948C7.59935 11.165 5.95865 13.7882 4.83357 15.3922C4.71685 15.558 4.562 15.6933 4.38206 15.7867C4.20213 15.8801 4.00239 15.9289 3.79968 15.9289C3.59696 15.9289 3.39722 15.8801 3.21729 15.7867C3.03735 15.6933 2.8825 15.558 2.76578 15.3922C1.6407 13.7882 0 11.165 0 9.49948C0 8.4912 0.400322 7.52422 1.1129 6.81125C1.82548 6.09829 2.79194 5.69775 3.79968 5.69775C4.80741 5.69775 5.77388 6.09829 6.48645 6.81125C7.19903 7.52422 7.59935 8.4912 7.59935 9.49948ZM5.69951 9.49948C5.69951 9.12353 5.58809 8.75601 5.37933 8.44342C5.17058 8.13082 4.87386 7.88718 4.52671 7.74331C4.17956 7.59944 3.79757 7.5618 3.42904 7.63514C3.0605 7.70849 2.72198 7.88953 2.45629 8.15537C2.19059 8.42121 2.00965 8.75991 1.93634 9.12864C1.86304 9.49737 1.90066 9.87957 2.04445 10.2269C2.18825 10.5742 2.43176 10.8711 2.74418 11.08C3.05661 11.2889 3.42392 11.4003 3.79968 11.4003C4.30354 11.4003 4.78678 11.2001 5.14306 10.8436C5.49935 10.4871 5.69951 10.0036 5.69951 9.49948ZM15.5787 12.1607C15.0821 12.1604 14.5915 12.2686 14.141 12.4777C13.6906 12.6869 13.2913 12.9919 12.971 13.3715C12.9455 13.3522 12.9189 13.3345 12.8912 13.3187L8.48354 11.0126C8.33164 11.5 8.14537 11.976 7.92612 12.4371L12.1882 14.6664C12.2179 14.6796 12.2484 14.691 12.2794 14.7006C12.0957 15.391 12.1328 16.1216 12.3853 16.7899C12.6379 17.4581 13.0933 18.0304 13.6875 18.4265C14.2818 18.8225 14.9852 19.0224 15.6988 18.998C16.4124 18.9736 17.1005 18.7262 17.6664 18.2906C18.2323 17.8549 18.6476 17.2528 18.8541 16.5689C19.0605 15.885 19.0476 15.1536 18.8173 14.4773C18.587 13.8011 18.1508 13.214 17.5699 12.7985C16.9891 12.383 16.2927 12.16 15.5787 12.1607Z" fill="#FFC857"/>
</svg>
