<?xml version="1.0" encoding="UTF-8"?>
<svg id="Layer_2" xmlns="http://www.w3.org/2000/svg" viewBox="0 0 356.9 156.8">
  <defs>
    <style>
      .cls-1 {
        font-family: Bahnschrift-Light, Bahnschrift;
        font-size: 50.33px;
        font-variation-settings: 'wght' 300, 'wdth' 100;
        font-weight: 300;
        letter-spacing: .07em;
      }
    </style>
  </defs>
  <g id="Layer_1-2" data-name="Layer_1">
    <g>
      <text class="cls-1" transform="translate(0 143.18)"><tspan x="0" y="0">smart tracker</tspan></text>
      <g>
        <path d="M88.39.05C66.2.05,48.21,18.04,48.21,40.22s17.99,40.18,40.18,40.18,40.18-17.99,40.18-40.18S110.58.05,88.39.05ZM88.39,63.47c-12.84,0-23.25-10.41-23.25-23.25s10.41-23.25,23.25-23.25,23.25,10.41,23.25,23.25-10.41,23.25-23.25,23.25Z"/>
        <path d="M223.29,67.75l-6.23-34.6c-3.94-21.86-24.86-36.4-46.72-32.46-21.86,3.94-36.4,24.86-32.46,46.72,3.46,19.21,20.22,33.17,39.74,33.1l35.16-.13c5.92-.02,10.71-4.84,10.69-10.77,0-.62-.06-1.25-.17-1.86ZM197.78,63.45l-20.34.07c-11.29.04-20.99-8.03-22.99-19.15-2.28-12.65,6.13-24.75,18.78-27.03s24.75,6.13,27.03,18.78l3.61,20.02c.06.36.1.72.1,1.08.01,3.43-2.76,6.22-6.18,6.23Z"/>
        <g id="ARC">
          <path d="M334.65,34.04c0-9.15-7.37-16.56-16.47-16.56s-16.47,7.41-16.47,16.93v46.1h-17.33v-46.47c0-9.15-7.37-16.56-16.47-16.56s-16.47,7.41-16.47,16.56v46.47h-17.33v-46.47c0-9.64,4.07-18.83,11.2-25.28,13.88-12.55,35.25-11.41,47.73,2.55C299.46,4.14,308.6.05,318.18.05c18.67,0,33.8,15.22,33.8,33.99v46.47h-17.33v-46.47Z"/>
        </g>
        <path d="M42.23.02c-3.73-.03-7.51-.02-9.29.03-1.23.04-2.13.09-2.88.17-.89.09-1.59.21-2.41.36-.08.02-.17.03-.26.05-.01,0-.02,0-.03,0-2,.37-2.98.72-3.35.83-3.23.93-5.72,2.24-7.37,3.25h.06c-1.93,1.13-3.78,2.45-5.5,4.01C4.07,15.18,0,24.36,0,34.01v46.5h17.33v-46.5c0-8.25,5.99-15.16,13.84-16.44.17-.03.34-.03.51-.06.72-.07,1.75-.13,3.23-.13h7.32V.02Z"/>
      </g>
    </g>
  </g>
</svg>